name analog
datacolumns 19
datarows 56
range 0.0 0.0275
endheader
time	ground_force_vx	ground_force_vy	ground_force_vz	ground_force_px	ground_force_py	ground_force_pz	l_ground_force_vx	l_ground_force_vy	l_ground_force_vz	l_ground_force_px	l_ground_force_py	l_ground_force_pz	ground_torque_x	ground_torque_y	ground_torque_z	l_ground_torque_x	l_ground_torque_y	l_ground_torque_z
0.0	-0.0	-0.0	-0.0	3.969677686691284	19.252166748046875	-404.9185485839844	-6.933487892150879	-20.35858917236328	-318.8307189941406	-0.0	-0.0	-0.0	-0.0	-0.0	-0.0	108410.09375	9392.767578125	-4271.7373046875
0.0005	-0.0	-0.0	-0.0	3.910130262374878	19.549118041992188	-405.1546325683594	-6.830730438232422	-20.417150497436523	-318.6581115722656	-0.0	-0.0	-0.0	-0.0	-0.0	-0.0	108215.734375	9301.646484375	-4237.04736328125
0.001	-0.0	-0.0	-0.0	3.85092043876648	19.252166748046875	-404.62646484375	-6.357944965362549	-20.535045623779297	-318.2507019042969	-0.0	-0.0	-0.0	-0.0	-0.0	-0.0	108573.328125	9259.76171875	-4217.05908203125
0.0015	-0.0	-0.0	-0.0	4.1926679611206055	19.341297149658203	-404.2139892578125	-6.594262599945068	-20.652507781982425	-318.0187683105469	-0.0	-0.0	-0.0	-0.0	-0.0	-0.0	108426.1328125	9052.876953125	-4241.9736328125
0.002	-0.0	-0.0	-0.0	4.118042945861816	19.341297149658203	-403.0954895019531	-6.416697025299072	-20.902774810791016	-317.32086181640625	-0.0	-0.0	-0.0	-0.0	-0.0	-0.0	108494.3671875	9120.5732421875	-4118.35498046875
0.0025	-0.0	-0.0	-0.0	4.742928504943848	19.29644203186035	-402.8590393066406	-5.987942695617676	-20.41701889038086	-318.4844055175781	-0.0	-0.0	-0.0	-0.0	-0.0	-0.0	108512.3671875	9066.9853515625	-4256.36572265625
0.003	-0.0	-0.0	-0.0	4.876302719116211	19.40017890930176	-402.97509765625	-6.253962993621826	-20.78493881225586	-318.6594543457031	-0.0	-0.0	-0.0	-0.0	-0.0	-0.0	108400.9375	9003.83203125	-4108.2919921875
0.0035	-0.0	-0.0	-0.0	4.712426662445068	19.742900848388672	-403.33148193359375	-6.180357933044434	-20.78486442565918	-317.78582763671875	-0.0	-0.0	-0.0	-0.0	-0.0	-0.0	108268.0390625	8978.3740234375	-4073.6484375
0.004	-0.0	-0.0	-0.0	5.143681049346924	19.340110778808597	-403.6846923828125	-6.445868492126465	-20.87313461303711	-317.1451721191406	-0.0	-0.0	-0.0	-0.0	-0.0	-0.0	108404.4765625	8934.5810546875	-4024.344482421875
0.0045000000000000005	-0.0	-0.0	-0.0	5.083585262298584	19.757709503173828	-404.9815368652344	-5.944519996643066	-20.460594177246094	-317.3788452148437	-0.0	-0.0	-0.0	-0.0	-0.0	-0.0	107986.3671875	9176.396484375	-4063.31005859375
0.005	-0.0	-0.0	-0.0	5.56024169921875	19.63949012756348	-403.2159118652344	-6.1648383140563965	-20.990375518798828	-316.9721984863281	-0.0	-0.0	-0.0	-0.0	-0.0	-0.0	107982.0859375	9037.60546875	-4059.04541015625
0.0055	-0.0	-0.0	-0.0	5.503705978393555	19.415870666503903	-404.037841796875	-6.28389310836792	-20.843917846679688	-315.7477722167969	-0.0	-0.0	-0.0	-0.0	-0.0	-0.0	107841.125	8787.6455078125	-3999.7900390625
0.006	-0.0	-0.0	-0.0	5.319527626037598	19.372352600097656	-403.5040893554688	-6.01779842376709	-20.948204040527344	-314.93475341796875	-0.0	-0.0	-0.0	-0.0	-0.0	-0.0	107504.3515625	8802.0556640625	-4004.525146484375
0.006500000000000001	-0.0	-0.0	-0.0	5.3069024085998535	19.13407325744629	-405.3357849121094	-6.137266635894775	-20.665557861328125	-316.2811279296875	-0.0	-0.0	-0.0	-0.0	-0.0	-0.0	107170.2890625	8757.666015625	-4088.7080078125
0.007	-0.0	-0.0	-0.0	5.232083797454834	20.056737899780277	-405.5651245117188	-5.588779449462891	-20.815099716186523	-314.4569396972656	-0.0	-0.0	-0.0	-0.0	-0.0	-0.0	107289.0859375	8729.3583984375	-3934.59375
0.0075	-0.0	-0.0	-0.0	5.545482635498047	19.68340110778809	-403.67425537109375	-5.797173023223877	-21.10679054260254	-314.8779602050781	-0.0	-0.0	-0.0	-0.0	-0.0	-0.0	107007.7578125	8834.2880859375	-3909.95361328125
0.008	-0.0	-0.0	-0.0	5.470627307891846	19.28092765808105	-405.4618835449219	-6.049057960510254	-20.870269775390625	-312.7831726074219	-0.0	-0.0	-0.0	-0.0	-0.0	-0.0	106873.6328125	8635.869140625	-3945.291748046875
0.0085	-0.0	-0.0	-0.0	5.2807936668396	19.49084854125977	-403.6278076171875	-6.0011091232299805	-21.330921173095703	-314.29302978515625	-0.0	-0.0	-0.0	-0.0	-0.0	-0.0	106702.2421875	8706.517578125	-4060.071533203125
0.009000000000000001	-0.0	-0.0	-0.0	5.680813312530518	19.280799865722656	-404.6307373046875	-6.15241813659668	-21.28552627563477	-313.3124694824219	-0.0	-0.0	-0.0	-0.0	-0.0	-0.0	106554.4921875	8658.5283203125	-4004.8408203125
0.0095	-0.0	-0.0	-0.0	5.292004108428955	19.26990127563477	-405.93060302734375	-5.723310947418213	-21.24282455444336	-312.83984375	-0.0	-0.0	-0.0	-0.0	-0.0	-0.0	106596.546875	8742.1806640625	-3885.893798828125
0.01	-0.0	-0.0	-0.0	5.559565544128418	19.548046112060547	-408.7001647949219	-5.957884311676025	-21.15460777282715	-312.5468444824219	-0.0	-0.0	-0.0	-0.0	-0.0	-0.0	106359.3125	8475.7744140625	-4048.68896484375
0.0105	-0.0	-0.0	-0.0	5.516819000244141	19.51955795288086	-405.7474060058594	-5.826436519622803	-21.006385803222656	-312.3226013183594	-0.0	-0.0	-0.0	-0.0	-0.0	-0.0	106152.9140625	8394.6513671875	-3973.84033203125
0.011	-0.0	-0.0	-0.0	5.009983539581299	19.537776947021484	-408.0672302246094	-5.808801651000977	-20.978147506713867	-311.8482971191406	-0.0	-0.0	-0.0	-0.0	-0.0	-0.0	106227.59375	8386.1201171875	-4014.104736328125
0.0115	-0.0	-0.0	-0.0	5.202524185180664	19.448835372924805	-407.3846435546875	-5.840749263763428	-20.74149513244629	-310.5630187988281	-0.0	-0.0	-0.0	-0.0	-0.0	-0.0	106126.4765625	8151.2890625	-3954.739501953125
0.012	-0.0	-0.0	-0.0	5.277551651000977	19.20539283752441	-407.4962158203125	-5.677490234375	-20.518781661987305	-310.5071105957031	-0.0	-0.0	-0.0	-0.0	-0.0	-0.0	105739.078125	8414.0478515625	-3834.610595703125
0.0125	-0.0	-0.0	-0.0	4.324386119842529	19.32721519470215	-409.4655456542969	-5.8449249267578125	-20.328025817871094	-310.1576232910156	-0.0	-0.0	-0.0	-0.0	-0.0	-0.0	105464.1796875	8257.970703125	-3959.352294921875
0.013000000000000001	-0.0	-0.0	-0.0	4.334020137786865	19.477426528930664	-407.792236328125	-5.500068664550781	-20.5649528503418	-308.4669494628906	-0.0	-0.0	-0.0	-0.0	-0.0	-0.0	105510.671875	8190.75	-3924.788330078125
0.0135	-0.0	-0.0	-0.0	3.822021245956421	19.608688354492188	-408.2760009765625	-5.52814245223999	-20.42075538635254	-309.64227294921875	-0.0	-0.0	-0.0	-0.0	-0.0	-0.0	105514.015625	8128.4130859375	-3974.712158203125
0.014	-0.0	-0.0	-0.0	3.521188974380493	19.472368240356445	-409.52252197265625	-5.742916584014893	-20.15128326416016	-309.0728454589844	-0.0	-0.0	-0.0	-0.0	-0.0	-0.0	105199.9140625	8226.5498046875	-3870.209228515625
0.0145	-0.0	-0.0	-0.0	3.197623014450073	20.162887573242188	-408.6292114257813	-5.54689359664917	-20.253467559814453	-307.6575622558594	-0.0	-0.0	-0.0	-0.0	-0.0	-0.0	105315.7578125	7915.537109375	-3954.40673828125
0.015	-0.0	-0.0	-0.0	3.3621397018432617	20.23822784423828	-408.9600830078125	-5.621744155883789	-19.695735931396484	-308.11627197265625	-0.0	-0.0	-0.0	-0.0	-0.0	-0.0	104833.4921875	8125.92529296875	-3899.650390625
0.0155	-0.0	-0.0	-0.0	2.8964126110076904	20.00684928894043	-408.4410095214844	-5.28095006942749	-19.635089874267575	-307.4931945800781	-0.0	-0.0	-0.0	-0.0	-0.0	-0.0	104941.0078125	7899.37109375	-3876.1416015625
0.016	-0.0	-0.0	-0.0	3.389999389648437	19.91760635375977	-410.748291015625	-5.172948837280273	-19.84477806091309	-308.562744140625	-0.0	-0.0	-0.0	-0.0	-0.0	-0.0	105009.1015625	7672.85205078125	-3764.92919921875
0.0165	-0.0	-0.0	-0.0	2.759286880493164	20.274049758911133	-411.34515380859375	-5.0426788330078125	-20.12356948852539	-306.827392578125	-0.0	-0.0	-0.0	-0.0	-0.0	-0.0	104901.5859375	7750.54443359375	-3636.9638671875
0.017	-0.0	-0.0	-0.0	3.314579725265503	20.383304595947266	-411.6986083984375	-4.674074649810791	-19.91948699951172	-307.0672302246094	-0.0	-0.0	-0.0	-0.0	-0.0	-0.0	105245.53125	7771.037109375	-3597.732421875
0.0175	-0.0	-0.0	-0.0	3.2461466789245605	20.561641693115234	-411.3192443847656	-4.585439205169678	-19.886079788208008	-307.4700622558594	-0.0	-0.0	-0.0	-0.0	-0.0	-0.0	104884.3828125	7785.11328125	-3449.3408203125
0.018000000000000002	-0.0	-0.0	-0.0	3.609574317932129	20.239410400390625	-411.671875	-4.421813488006592	-19.96070098876953	-308.7290954589844	-0.0	-0.0	-0.0	-0.0	-0.0	-0.0	105026.046875	7333.958984375	-3469.727783203125
0.0185	-0.0	-0.0	-0.0	3.932310342788696	20.88387680053711	-413.2205200195313	-4.189608573913574	-20.25942039489746	-308.0595703125	-0.0	-0.0	-0.0	-0.0	-0.0	-0.0	104940.6640625	7574.50048828125	-3396.5810546875
0.019	-0.0	-0.0	-0.0	4.220206260681152	21.042041778564453	-411.4546508789063	-3.998710155487061	-19.87928771972656	-307.25341796875	-0.0	-0.0	-0.0	-0.0	-0.0	-0.0	105162.7421875	7334.26611328125	-3270.937744140625
0.0195	-0.0	-0.0	-0.0	3.663749217987061	20.959251403808597	-411.7781372070313	-3.5756850242614746	-20.38874244689941	-307.3070678710937	-0.0	-0.0	-0.0	-0.0	-0.0	-0.0	105201.09375	7308.5087890625	-3088.225341796875
0.02	-0.0	-0.0	-0.0	4.130868911743164	20.94564437866211	-412.7597351074219	-3.371009826660156	-20.83037567138672	-307.4675598144531	-0.0	-0.0	-0.0	-0.0	-0.0	-0.0	104991.9140625	7158.56494140625	-2958.072998046875
0.0205	-0.0	-0.0	-0.0	4.076573371887207	20.93210220336914	-411.7766418457031	-3.309426784515381	-20.80340385437012	-308.9458312988281	-0.0	-0.0	-0.0	-0.0	-0.0	-0.0	105225.140625	7234.06982421875	-2859.921142578125
0.021	-0.0	-0.0	-0.0	4.955236434936523	20.718769073486328	-411.7543029785156	-3.3980627059936523	-20.67322158813477	-308.2476501464844	-0.0	-0.0	-0.0	-0.0	-0.0	-0.0	105131.265625	7247.74169921875	-2994.689453125
0.021500000000000002	-0.0	-0.0	-0.0	5.374382019042969	21.199556350708008	-413.1136779785156	-2.879248142242432	-20.945680618286133	-308.4374694824219	-0.0	-0.0	-0.0	-0.0	-0.0	-0.0	105070.4296875	6966.82568359375	-2733.883056640625
0.022	-0.0	-0.0	-0.0	5.584868431091309	21.3997745513916	-411.8078002929688	-2.5377559661865234	-20.552143096923828	-307.51837158203125	-0.0	-0.0	-0.0	-0.0	-0.0	-0.0	105012.1015625	6976.62158203125	-2802.598388671875
0.0225	-0.0	-0.0	-0.0	6.079730987548828	20.727170944213867	-412.51416015625	-2.5591866970062256	-20.932239532470703	-307.4647827148437	-0.0	-0.0	-0.0	-0.0	-0.0	-0.0	104815.0234375	7015.98681640625	-2599.6142578125
0.023	-0.0	-0.0	-0.0	6.088570594787598	20.682775497436523	-413.2205200195313	-2.763434886932373	-20.78227996826172	-306.7460632324219	-0.0	-0.0	-0.0	-0.0	-0.0	-0.0	104664.2265625	7004.5439453125	-2592.496337890625
0.0235	-0.0	-0.0	-0.0	6.182231903076172	20.85651397705078	-412.6727600097656	-2.2712223529815674	-20.87052726745605	-305.9430236816406	-0.0	-0.0	-0.0	-0.0	-0.0	-0.0	104526.6171875	6758.2705078125	-2571.429443359375
0.024	-0.0	-0.0	-0.0	6.297997951507568	20.562515258789062	-414.3169555664063	-2.341888427734375	-21.04254722595215	-305.80438232421875	-0.0	-0.0	-0.0	-0.0	-0.0	-0.0	104199.515625	6937.58349609375	-2612.989990234375
0.0245	-0.0	-0.0	-0.0	6.4326276779174805	20.32173156738281	-414.37017822265625	-2.874254941940308	-20.80419158935547	-306.5027770996094	-0.0	-0.0	-0.0	-0.0	-0.0	-0.0	104295.734375	6917.02783203125	-2490.212890625
0.025	-0.0	-0.0	-0.0	6.159080028533936	20.463823318481445	-413.7695007324219	-2.2575578689575195	-20.026723861694336	-304.5646057128906	-0.0	-0.0	-0.0	-0.0	-0.0	-0.0	103934.3984375	7090.31591796875	-2464.372802734375
0.025500000000000002	-0.0	-0.0	-0.0	6.066314697265625	20.1335563659668	-414.8294982910156	-2.244220018386841	-20.826902389526367	-304.51226806640625	-0.0	-0.0	-0.0	-0.0	-0.0	-0.0	103863.328125	7056.3994140625	-2489.82080078125
0.026000000000000002	-0.0	-0.0	-0.0	6.2447357177734375	20.311601638793945	-414.4366149902344	-2.5594232082366943	-20.57895278930664	-303.76190185546875	-0.0	-0.0	-0.0	-0.0	-0.0	-0.0	103558.3359375	7105.7412109375	-2440.707763671875
0.0265	-0.0	-0.0	-0.0	5.911348342895508	20.14347076416016	-415.0792846679688	-2.661323547363281	-20.26498031616211	-301.7705993652344	-0.0	-0.0	-0.0	-0.0	-0.0	-0.0	103414.75	6877.87841796875	-2663.599609375
0.027	-0.0	-0.0	-0.0	5.507408142089844	20.319150924682617	-415.5889892578125	-2.3721039295196533	-20.300920486450195	-301.70623779296875	-0.0	-0.0	-0.0	-0.0	-0.0	-0.0	102937.53125	7133.00244140625	-2600.78125
0.0275	-0.0	-0.0	-0.0	5.900969505310059	20.04127693176269	-415.391357421875	-2.559525489807129	-20.248838424682617	-301.7071228027344	-0.0	-0.0	-0.0	-0.0	-0.0	-0.0	102567.7734375	7297.2294921875	-2562.447265625
